<svg xmlns="http://www.w3.org/2000/svg" xmlns:xlink="http://www.w3.org/1999/xlink">
  <svg viewBox="0 0 100 100" preserveAspectRatio="none">
    <path id="remote-ring-button" d="M 50 0 C 36.192881 0 23.70447 5.6080297 14.65625 14.65625 L 50 50 L 85.34375 14.65625 C 76.29553 5.6080297 63.807119 -7.0277611e-15 50 0 z"/>
    <use xlink:href="#remote-ring-button" transform="rotate(90,  50, 50)"/>
    <use xlink:href="#remote-ring-button" transform="rotate(180, 50, 50)"/>
    <use xlink:href="#remote-ring-button" transform="rotate(270, 50, 50)"/>
    <circle cx="50" cy="50" r="23" fill="white"/>
    <rect x="47.5" y="-5" width="5" height="33" transform="rotate(45,  50, 50)" fill="white"/>
    <rect x="47.5" y="-5" width="5" height="33" transform="rotate(135, 50, 50)" fill="white"/>
    <rect x="47.5" y="-5" width="5" height="33" transform="rotate(225, 50, 50)" fill="white"/>
    <rect x="47.5" y="-5" width="5" height="33" transform="rotate(315, 50, 50)" fill="white"/>
    <circle cx="50" cy="50" r="18"/>
  </svg>
  
  <svg viewBox="0 0 100 100" preserveAspectRatio="xMinYMin">
    <circle cx="14" cy="14" r="17" fill="white"/>
    <circle cx="14" cy="14" r="14"/>
    <svg width="20" height="20" x="4" y="4" viewBox="-192 -384 2048 2048">
      <g transform="scale(1 -1) translate(0 -1280)">
        <path d="M1408 544v-480q0 -26 -19 -45t-45 -19h-384v384h-256v-384h-384q-26 0 -45 19t-19 45v480q0 1 0.5 3t0.5 3l575 474l575 -474q1 -2 1 -6zM1631 613l-62 -74q-8 -9 -21 -11h-3q-13 0 -21 7l-692 577l-692 -577q-12 -8 -24 -7q-13 2 -21 11l-62 74q-8 10 -7 23.5t11 21.5 l719 599q32 26 76 26t76 -26l244 -204v195q0 14 9 23t23 9h192q14 0 23 -9t9 -23v-408l219 -182q10 -8 11 -21.5t-7 -23.5z" fill="white"/>
      </g>
    </svg>
  </svg>
    
  <svg viewBox="0 0 100 100" preserveAspectRatio="xMaxYMin">
    <circle cx="86" cy="14" r="17" fill="white"/>
    <circle cx="86" cy="14" r="14"/>
    <svg width="20" height="20" x="76" y="4" viewBox="-704 -384 2048 2048">
      <g transform="scale(1 -1) translate(0 -1280)">
        <path d="M640 192v-128q0 -26 -19 -45t-45 -19h-512q-26 0 -45 19t-19 45v128q0 26 19 45t45 19h64v384h-64q-26 0 -45 19t-19 45v128q0 26 19 45t45 19h384q26 0 45 -19t19 -45v-576h64q26 0 45 -19t19 -45zM512 1344v-192q0 -26 -19 -45t-45 -19h-256q-26 0 -45 19t-19 45v192 q0 26 19 45t45 19h256q26 0 45 -19t19 -45z" fill="white" />
      </g>
    </svg>
  </svg>
    
  <svg viewBox="0 0 100 100" preserveAspectRatio="xMaxYMax">
    <circle cx="86" cy="86" r="17" fill="white"/>
    <circle cx="86" cy="86" r="14"/>
  </svg>
    
  <svg viewBox="0 0 100 100" preserveAspectRatio="xMinYMax">
    <circle cx="14" cy="86" r="17" fill="white"/>
    <circle cx="14" cy="86" r="14"/>
  </svg>

  <svg viewBox="0 0 100 100" preserveAspectRatio="xMidYMin">
    <polygon id="remote-arrow" points="50,10 55,17 45,17" fill="white"/>
  </svg>
  <svg viewBox="0 0 100 100" preserveAspectRatio="xMaxYMid slice">
    <use xlink:href="#remote-arrow" transform="rotate(90,50,50)"/>
  </svg>
  <svg viewBox="0 0 100 100" preserveAspectRatio="xMidYMax">
    <use xlink:href="#remote-arrow" transform="rotate(180,50,50)"/>
  </svg>
  <svg viewBox="0 0 100 100" preserveAspectRatio="xMinYMid slice">
    <use xlink:href="#remote-arrow" transform="rotate(-90,50,50)"/>
  </svg>
</svg>
